Coordinates
version=1
nRows=13
nColumns=63
inDegrees=yes

Units are S.I. units (second, meters, Newtons, ...)
If the header above contains a line with 'inDegrees', this indicates whether rotational values are in degrees (yes) or radians (no).

endheader
time	pelvis_tilt	pelvis_list	pelvis_rotation	pelvis_tx	pelvis_ty	pelvis_tz	hip_flexion_r	hip_adduction_r	hip_rotation_r	knee_angle_r	knee_angle_r_beta	ankle_angle_r	subtalar_angle_r	mtp_angle_r	hip_flexion_l	hip_adduction_l	hip_rotation_l	knee_angle_l	knee_angle_l_beta	ankle_angle_l	subtalar_angle_l	mtp_angle_l	L5_S1_Flex_Ext	L5_S1_Lat_Bending	L5_S1_axial_rotation	L4_L5_Flex_Ext	L4_L5_Lat_Bending	L4_L5_axial_rotation	L3_L4_Flex_Ext	L3_L4_Lat_Bending	L3_L4_axial_rotation	L2_L3_Flex_Ext	L2_L3_Lat_Bending	L2_L3_axial_rotation	L1_L2_Flex_Ext	L1_L2_Lat_Bending	L1_L2_axial_rotation	L1_T12_Flex_Ext	L1_T12_Lat_Bending	L1_T12_axial_rotation	Abs_r3	Abs_r2	Abs_r1	Abs_t1	Abs_t2	neck_flexion	neck_bending	neck_rotation	arm_flex_r	arm_add_r	arm_rot_r	elbow_flex_r	pro_sup_r	wrist_flex_r	wrist_dev_r	arm_flex_l	arm_add_l	arm_rot_l	elbow_flex_l	pro_sup_l	wrist_flex_l	wrist_dev_l
2.100000	-7.036946	8.784645	79.609956	0.204002	0.842692	0.611281	-16.223149	-7.832512	-6.378413	11.019689	0.192330	28.158315	15.245473	0.000000	-15.055957	5.047047	-20.074275	16.127085	0.281471	25.211152	11.713819	0.000000	0.872272	1.623709	1.064262	1.619897	2.159533	1.130779	1.433056	3.947886	1.130779	0.996920	3.947886	0.931229	0.809992	3.311068	0.864713	0.498416	2.515125	0.798197	6.230552	18.367722	5.919107	0.000000	0.000000	28.340876	26.549788	23.586928	-5.669458	-23.847759	63.162377	23.636278	59.416701	-4.569604	5.670054	3.490061	-5.610378	137.588771	5.640072	3.774946	3.392688	-13.463246
2.116667	-7.113878	8.555364	79.627701	0.204835	0.842353	0.610921	-16.071072	-7.812888	-6.544177	10.893477	0.190127	27.995946	15.255234	0.000000	-14.802103	5.013533	-20.045408	16.155443	0.281966	25.264961	11.847485	0.000000	0.875659	1.642555	1.018627	1.626186	2.184598	1.082292	1.438620	3.993708	1.082292	1.000790	3.993708	0.891299	0.813137	3.349498	0.827635	0.500351	2.544317	0.763971	6.254742	18.580908	5.665300	0.000000	0.000000	28.343123	29.986652	31.900812	-5.560106	-23.998284	61.981917	23.879483	61.000257	-4.331806	6.055797	3.602659	-5.499364	138.908375	5.807657	3.741033	2.808810	-13.915634
2.133333	-7.182193	8.319152	79.688351	0.205681	0.842070	0.610505	-15.956553	-7.765636	-6.784473	10.708396	0.186897	27.793218	15.305911	0.000000	-14.569836	4.972905	-19.908680	16.131867	0.281554	25.261348	11.914995	0.000000	0.886764	1.654337	0.973424	1.646810	2.200268	1.034263	1.456865	4.022355	1.034263	1.013483	4.022355	0.851746	0.823449	3.373524	0.790907	0.506697	2.562568	0.730068	6.334068	18.714189	5.413892	0.000000	0.000000	28.348182	32.917056	38.782795	-5.449903	-24.046897	61.126127	23.974373	62.333661	-4.131465	6.356582	3.681188	-5.393520	140.576667	5.946318	3.861838	2.325049	-14.266952
2.150000	-7.239062	8.091603	79.785849	0.206526	0.841854	0.610093	-15.886610	-7.692258	-7.054929	10.471180	0.182757	27.558785	15.390288	0.000000	-14.367377	4.921036	-19.713659	16.072666	0.280521	25.217877	11.951234	0.000000	0.898523	1.658311	0.925603	1.668647	2.205553	0.983454	1.476184	4.032016	0.983454	1.026922	4.032016	0.809903	0.834369	3.381627	0.752053	0.513416	2.568723	0.694203	6.418060	18.759140	5.147928	0.000000	0.000000	28.354233	35.197174	43.920563	-5.299044	-23.986328	60.714859	23.906572	63.328071	-4.027680	6.533262	3.703111	-5.285482	142.544799	6.001587	4.089421	1.969299	-14.495877
2.166667	-7.295299	7.885043	79.928216	0.207357	0.841703	0.609703	-15.865557	-7.604955	-7.373191	10.193970	0.177918	27.304570	15.510043	0.000000	-14.207232	4.868040	-19.465678	15.972432	0.278772	25.136155	11.981516	0.000000	0.911501	1.654542	0.871620	1.692748	2.200541	0.926096	1.497505	4.022853	0.926096	1.041754	4.022853	0.762667	0.846420	3.373942	0.708191	0.520832	2.562886	0.653715	6.510759	18.716510	4.847688	0.000000	0.000000	28.361362	36.997260	47.708154	-5.155856	-23.825395	60.463545	23.701445	64.419710	-3.979619	6.570659	3.666968	-5.187737	144.521234	6.021479	4.434490	1.790984	-14.662246
2.183333	-7.349879	7.707205	80.109110	0.208143	0.841629	0.609363	-15.899445	-7.506704	-7.702824	9.871746	0.172294	27.039577	15.659633	0.000000	-14.090236	4.819516	-19.153746	15.839894	0.276458	25.034429	11.963574	0.000000	0.924934	1.643320	0.813119	1.717694	2.185616	0.863939	1.519573	3.995569	0.863939	1.057107	3.995569	0.711479	0.858893	3.351059	0.660659	0.528507	2.545503	0.609840	6.606708	18.589570	4.522326	0.000000	0.000000	28.368569	38.093724	49.873936	-4.990926	-23.583199	60.628692	23.378005	65.016642	-4.027642	6.575857	3.542104	-5.079574	146.939170	5.891942	4.695516	1.697374	-14.726778
2.200000	-7.402240	7.562319	80.295710	0.208871	0.841636	0.609110	-15.978665	-7.411179	-8.000643	9.512582	0.166026	26.774257	15.838461	0.000000	-14.016252	4.793076	-18.759163	15.673126	0.273548	24.921846	11.833645	0.000000	0.938502	1.625227	0.758136	1.742892	2.161551	0.805519	1.541865	3.951576	0.805519	1.072614	3.951576	0.663369	0.871493	3.314162	0.615985	0.536260	2.517476	0.568602	6.703626	18.384888	4.216523	0.000000	0.000000	28.375544	38.322029	50.185607	-4.806158	-23.272039	61.234017	22.931049	65.028968	-4.130360	6.545735	3.363414	-4.957853	149.616048	5.688178	4.891471	1.574368	-14.717795
2.216667	-7.398601	7.442176	80.437885	0.209510	0.841806	0.609051	-16.069923	-7.279322	-8.194310	9.142206	0.159562	26.477947	16.016525	0.000000	-13.974274	4.717528	-18.565607	15.496396	0.270463	24.834114	11.879513	0.000000	0.949358	1.607947	0.709304	1.763053	2.138569	0.753636	1.559700	3.909562	0.753636	1.085021	3.909562	0.620641	0.881574	3.278925	0.576310	0.542463	2.490709	0.531978	6.781170	18.189414	3.944936	0.000000	0.000000	28.381223	37.562113	48.441484	-4.606438	-22.954275	62.019554	22.453599	64.455668	-4.270853	6.690866	3.245223	-4.381126	156.490144	4.522004	1.337437	1.842207	-15.318274
2.233333	-7.390225	7.369956	80.579092	0.210101	0.842046	0.609133	-16.209911	-7.150886	-8.336622	8.755873	0.152819	26.205501	16.200982	0.000000	-13.987376	4.660604	-18.345590	15.284794	0.266770	24.756771	11.871550	0.000000	0.958791	1.581557	0.670177	1.780571	2.103471	0.712063	1.575198	3.845398	0.712063	1.095802	3.845398	0.586405	0.890333	3.225111	0.544519	0.547853	2.449832	0.502633	6.848548	17.890891	3.727324	0.000000	0.000000	28.385713	35.745196	44.288795	-4.358161	-22.566280	63.419252	21.856363	63.063196	-4.441744	6.793576	3.081665	-4.069921	160.944263	3.887086	-0.096613	1.774991	-15.475013
2.250000	-7.410423	7.301654	80.734534	0.210607	0.842107	0.609281	-16.343912	-7.051377	-8.435046	8.381908	0.146292	26.018552	16.368223	0.000000	-13.988607	4.629389	-18.143437	15.091579	0.263398	24.759461	11.899350	0.000000	0.952908	1.567600	0.628972	1.769646	2.084907	0.668283	1.565533	3.811462	0.668283	1.089079	3.811462	0.550351	0.884871	3.196649	0.511040	0.544492	2.428212	0.471729	6.806530	17.733000	3.498156	0.000000	0.000000	28.383807	35.349065	44.166273	-4.255307	-22.323822	63.883719	21.508319	62.105818	-4.488990	7.251822	2.882495	-3.935897	162.915562	3.851172	0.288885	1.141212	-15.445730
2.266667	-7.443703	7.240379	80.891963	0.211057	0.842134	0.609567	-16.467665	-6.968846	-8.491552	8.027638	0.140109	25.874811	16.509266	0.000000	-13.979191	4.614911	-17.949977	14.912043	0.260264	24.791059	11.924324	0.000000	0.942571	1.551131	0.599343	1.750448	2.063004	0.636802	1.548549	3.771420	0.636802	1.077264	3.771420	0.524426	0.875271	3.163066	0.486967	0.538585	2.402702	0.449508	6.732687	17.546703	3.333368	0.000000	0.000000	28.380550	34.937930	44.054275	-4.195587	-22.069701	64.303169	21.152868	60.859173	-4.470756	7.701658	2.664650	-4.025843	162.713638	4.312642	2.376953	0.118763	-15.163440
2.283333	-7.491602	7.182166	81.050887	0.211431	0.842147	0.609993	-16.573108	-6.907755	-8.525377	7.701031	0.134408	25.759704	16.628391	0.000000	-13.963700	4.624855	-17.732213	14.724903	0.256998	24.815400	11.920592	0.000000	0.927298	1.532752	0.580541	1.722085	2.038561	0.616825	1.523458	3.726734	0.616825	1.059809	3.726734	0.507974	0.861089	3.125588	0.471690	0.529858	2.374233	0.435406	6.623597	17.338801	3.228796	0.000000	0.000000	28.376017	34.525559	44.027613	-4.181416	-21.816179	64.632878	20.810147	59.386787	-4.382027	8.090109	2.421296	-4.311501	160.464312	5.193066	5.808712	-1.082570	-14.672190
2.300000	-7.568845	7.109289	81.267789	0.211712	0.842082	0.610572	-16.646110	-6.864092	-8.605978	7.414325	0.129404	25.695135	16.732707	0.000000	-13.903512	4.658125	-17.389843	14.560919	0.254136	24.842269	11.812020	0.000000	0.904445	1.510124	0.558860	1.679646	2.008465	0.593789	1.485913	3.671716	0.593789	1.033691	3.671716	0.489003	0.839868	3.079445	0.454074	0.516800	2.339182	0.419145	6.460363	17.082826	3.108212	0.000000	0.000000	28.369738	34.489705	44.695098	-4.114602	-21.563300	65.108382	20.434186	57.678097	-4.236716	8.189852	2.013799	-4.784486	156.059936	6.324397	11.084970	-2.351415	-13.882493
